# xmcd
#
# Track frame offsets: 
#        150
#        15979
#        36413
#        48316
#        60284
#
# Disc length: 960 seconds
#
# Revision: 0
# Processed by: cddbd v1.4PL0 Copyright (c) Steve Scherf et al.
# Submitted via: ExactAudioCopy v0.90b4
#
DISCID=3203be05
DTITLE=Hem - I'm Talking With My Mouth
DYEAR=2002
DGENRE=Acoustic
TTITLE0=Jackson
TTITLE1=Valentine's Day
TTITLE2=(The Angels Want To Wear My) Red Shoes
TTITLE3=Living Without You
TTITLE4=A Dream Is A Wish Your Heart Makes
EXTD=
EXTT0=
EXTT1=
EXTT2=
EXTT3=
EXTT4=
PLAYORDER=
